<svg version="1.1" xmlns="http://www.w3.org/2000/svg" xmlns:xlink="http://www.w3.org/1999/xlink" width="116.25" height="39.93000030517578"><defs></defs><g transform="translate(-64.90563201904297,17.639999389648438)"><rect fill="rgb(255,255,255)" stroke="none" x="0" y="0" width="116.25" height="39.93000030517578" fill-opacity="0" transform="translate(64.90563201904297,-17.639999389648438)"></rect><g transform="translate(59.265625,20.5) rotate(0,0,0) translate(-59.265625,-20.5) matrix(1,0,0,1,59.265625,20.5)"><path fill="rgb(0,0,0)" fill-opacity="1" d="M45.23-37.00L47.29-36.86L47.59-36.86Q47.73-36.86 47.77-36.83Q47.80-36.81 47.86-36.80Q47.92-36.79 47.97-36.74L47.97-36.74Q48.09-36.64 48.30-36.53L48.30-36.53Q48.58-36.32 48.58-36.04Q48.58-35.75 48.03-34.88Q47.48-34.00 45.20-30.50L45.20-30.50Q39.95-22.46 35.80-15.60L35.80-15.60Q28.63-3.67 28.56-3.60Q28.49-3.53 28.47-3.46L28.47-3.46Q28.45-3.32 28.28-3.32L28.28-3.32L27.95-3.39L27.32-3.22L26.95-3.29L26.55-3.22L26.41-3.22L25.09-3.04Q23.92-3.04 23.92-3.83L23.92-3.83Q23.92-4.16 24.13-4.65L24.13-4.65Q24.86-6.36 31.45-17.10L31.45-17.10Q27.11-16.98 22.89-16.98L22.89-16.98L17.85-17.00Q16.61-15.01 14.45-11.36L14.45-11.36Q9.79-3.39 9.48-3.30Q9.18-3.22 8.99-3.22Q8.80-3.22 8.64-3.45Q8.48-3.67 8.42-3.67Q8.36-3.67 8.17-3.57Q7.98-3.48 7.63-3.48L7.63-3.48L7.09-3.50L6.88-3.64Q6.86-3.64 6.82-3.57Q6.79-3.50 6.65-3.50L6.65-3.50Q5.64-3.50 5.64-4.35L5.64-4.35Q5.64-4.91 6.04-5.82Q6.44-6.74 7.08-7.82Q7.73-8.89 10.41-12.91Q13.09-16.93 13.09-16.96L13.09-16.96Q12.65-16.98 12.06-17.00L12.06-17.00Q10.87-17.00 10.38-17.10L10.38-17.10Q9.04-17.33 8.55-19.30L8.55-19.30Q8.29-20.26 8.31-20.57L8.31-20.57Q8.31-21.20 8.85-21.20L8.85-21.20L9.46-21.04Q9.93-21.01 11.71-20.92Q13.49-20.82 14.27-20.82L14.27-20.82L15.60-20.87Q18.65-25.65 22.89-31.68L22.89-31.68Q19.80-29.14 16.02-29.14L16.02-29.14Q14.24-29.14 12.95-30Q11.66-30.86 11.66-32.17Q11.66-33.48 12.65-34.24Q13.63-35.00 14.52-35.00Q15.41-35.00 15.41-34.72L15.41-34.72Q15.41-34.63 15.17-34.51Q14.92-34.39 14.92-34.28L14.92-34.28Q14.92-33.90 15.74-33.61Q16.56-33.32 17.58-33.32Q18.60-33.32 20.10-33.91Q21.60-34.51 23.22-35.45L23.22-35.45Q25.47-36.76 26.78-37.63L26.78-37.63Q27.53-38.00 28.19-38.00Q28.84-38.00 29.14-37.85Q29.43-37.70 29.57-37.55Q29.71-37.39 29.88-37.15Q30.04-36.90 30.19-36.77Q30.34-36.64 30.34-36.48Q30.34-36.32 30.17-35.96Q29.99-35.61 28.38-33.12Q26.76-30.62 24.21-26.74Q21.67-22.86 20.50-21.04L20.50-21.04Q26.76-21.04 34.02-21.27L34.02-21.27Q42.86-35.21 43.35-35.89Q43.84-36.57 44.24-36.79Q44.64-37.00 45.23-37.00L45.23-37.00ZM59.62-37.46L61.49-37.39L62.59-37.44Q63.20-37.44 63.20-36.97L63.20-36.97Q63.20-36.83 63.16-36.76L63.16-36.76Q51.95-20.29 42.23-4.46L42.23-4.46Q41.71-3.62 41.31-3.50L41.31-3.50Q41.29-3.50 41.08-3.41L41.08-3.41Q39.91-2.96 39.44-2.96Q38.97-2.96 38.92-2.94L38.92-2.94Q38.71-2.71 38.42-2.71Q38.13-2.71 38.03-2.72Q37.94-2.73 37.49-2.91Q37.05-3.08 37.05-3.18L37.05-3.18Q37.05-4.32 37.14-4.56L37.14-4.56Q37.63-6.22 42.55-13.95Q47.48-21.67 52.57-29.02Q57.67-36.36 58.75-37.21L58.75-37.21Q59.08-37.46 59.62-37.46L59.62-37.46ZM88.33-12.06L88.33-12.06L88.52-11.17Q88.52-10.61 87.93-9.83L87.93-9.83Q86.38-7.82 82.97-5.20Q79.56-2.59 77.95-2.59Q76.33-2.59 75.41-3.54Q74.50-4.49 74.50-5.71L74.50-5.71Q74.50-7.16 77.55-12.13L77.55-12.13Q82.12-19.51 89.22-29.38L89.22-29.38Q87.72-27.83 81.25-21.04L81.25-21.04Q66.93-6.04 64.52-4.04L64.52-4.04Q64.12-3.71 63.36-3.71Q62.59-3.71 61.75-4.34Q60.91-4.96 60.91-5.73L60.91-5.73L60.91-5.85Q61-6.83 65.43-15.48Q69.86-24.13 72.86-29.24L72.86-29.24Q68.43-24.36 63.91-18.36L63.91-18.36Q55.30-6.97 51.32 1.04L51.32 1.04Q50.97 1.79 50.45 1.79Q49.94 1.79 48.95 1.54L48.95 1.54Q46.89 0.97 46.89-0.43L46.89-0.43Q46.89-1.28 50.34-6.47Q53.78-11.66 58.33-17.81Q62.88-23.96 67.75-29.66L67.75-29.66Q74.48-37.54 76.40-37.54L76.40-37.54Q76.70-37.54 76.98-37.38Q77.27-37.23 77.34-37.23Q77.41-37.23 77.48-37.30L77.48-37.30Q77.78-37.68 78.68-37.68Q79.59-37.68 80.44-37.32Q81.30-36.97 81.30-36.53L81.30-36.53Q81.30-36.25 78.95-32.05L78.95-32.05Q71.10-18.13 68.41-12.93L68.41-12.93Q70.98-16.04 75.78-21.20Q80.57-26.36 85.84-31.49L85.84-31.49Q92.71-38.14 94.05-38.14L94.05-38.14Q94.59-38.14 95.41-37.91L95.41-37.91Q96.86-37.49 98.20-37.49L98.20-37.49Q98.57-37.42 98.84-37.17Q99.11-36.93 99.11-36.67Q99.11-36.41 98.97-36.25L98.97-36.25Q91.35-26.12 86.13-18.39Q80.90-10.65 79.68-7.93L79.68-7.93Q82.14-8.45 87.02-13.82L87.02-13.82Q87.23-14.10 87.32-14.19Q87.41-14.29 87.48-14.38L87.48-14.38Q87.88-14.85 88.09-13.79L88.09-13.79Q88.19-13.18 88.22-12.94Q88.26-12.69 88.29-12.42Q88.33-12.15 88.33-12.06ZM101.62-26.33L101.62-26.33Q101.62-24.81 106.94-24.81L106.94-24.81Q108.25-24.81 108.88-25.09L108.88-25.09Q110.55-25.89 112.97-25.89Q115.40-25.89 115.40-24.64L115.40-24.64Q115.40-24.15 114.99-23.20Q114.58-22.25 114.38-22.04Q114.18-21.83 112.87-21.47Q111.55-21.11 111.17-21.07Q110.78-21.04 110.65-21.01Q110.52-20.99 110.35-20.96Q110.17-20.94 109.56-20.84Q108.95-20.73 108.67-20.85L108.67-20.85Q100.91-17.03 98.01-12.46L98.01-12.46Q96.70-10.39 96.70-8.92L96.70-8.92Q96.70-6.60 99.91-6.60L99.91-6.60Q102.41-6.60 106.28-8.57Q110.15-10.54 113.14-13.34Q116.13-16.14 116.13-18.20L116.13-18.20Q116.13-18.86 117.11-18.86L117.11-18.86Q119.38-18.86 119.38-16.16L119.38-16.16Q119.38-14.89 118.28-13.15Q117.18-11.40 115.21-9.61Q113.24-7.82 110.83-6.27Q108.41-4.72 105.47-3.74Q102.53-2.75 100.49-2.75Q98.45-2.75 97.20-3.14Q95.95-3.53 94.84-4.30L94.84-4.30Q92.45-5.96 92.45-9.34L92.45-9.34Q92.45-11.17 93.44-13.05Q94.42-14.94 96.02-16.49L96.02-16.49Q98.95-19.39 102.30-21.32L102.30-21.32Q97.47-22.42 97.47-26.29L97.47-26.29Q97.47-30.64 104.17-34.25L104.17-34.25Q107.90-36.25 112.26-37.11L112.26-37.11Q114.32-37.54 115.70-37.54L115.70-37.54Q118.52-37.54 119.95-37.09L119.95-37.09Q120.81-36.67 121.35-35.91Q121.89-35.14 121.89-34.59Q121.89-34.04 121.75-33.60Q121.61-33.15 121.28-32.89L121.28-32.89Q120.81-32.54 120.23-32.36Q119.64-32.17 119.55-32.12L119.55-32.12Q117.72-31.35 116.41-31.35L116.41-31.35Q114.06-31.35 113.85-31.96L113.85-31.96Q113.90-32.57 114.37-33.36L114.37-33.36Q112.14-33.27 109.75-32.46Q107.36-31.65 105.61-30.56Q103.87-29.47 102.74-28.30Q101.62-27.13 101.62-26.33Z"></path></g></g></svg>